# xmcd CD database file
#
# Track frame offsets:
#	150
#	17487
#	29699
#	41769
#	62592
#	74106
#	87224
#	101308
#	148725
#	161482
#	174572
#	185631
#	213589
#	225477
#	238492
#	252035
#
# Disc length: 3515 seconds
#
# Revision: 1
# Processed by: cddbd v1.5.1PL2 Copyright (c) Steve Scherf et al.
# Submitted via: CDex 1.51
#
DISCID=e40db910
DTITLE=Various Artist - Ultimate Piano Works [CD 1)
DYEAR=1900
DGENRE=Jazz
TTITLE0=Erroll Garner - People Will Say We're In Love
TTITLE1=Willie Smith - Between The Devil And The Deep Blue Sea
TTITLE2=Jimmy Yancey - 35th And Dearborn
TTITLE3=Sammy Price - Goin' Back Home
TTITLE4=Oscar Peterson - Ghost Of A Chance With You
TTITLE5=Erroll Garner - A Cottage For Sale
TTITLE6=Bud Powell - Strictly Confidential
TTITLE7=Erroll Garner - Duke For Dinner
TTITLE8=Horace Silver - Yeah
TTITLE9=Earl Hines - Rhythm Sundae
TTITLE10=Art Tatum - After You've Gone
TTITLE11=Dave Brubeck - Stardust
TTITLE12=Art Tatum - Ain't Misbehavin'
TTITLE13=Willie Smith - The Boy In The Boat
TTITLE14=Thelonius Monk - Well, You Needn't
TTITLE15=George Shearing - Bop's Your Uncle
EXTD=
EXTT0=
EXTT1=
EXTT2=
EXTT3=
EXTT4=
EXTT5=
EXTT6=
EXTT7=
EXTT8=
EXTT9=
EXTT10=
EXTT11=
EXTT12=
EXTT13=
EXTT14=
EXTT15=
PLAYORDER=
